<svg xmlns="http://www.w3.org/2000/svg" width="511" height="118" fill="none" xmlns:v="https://vecta.io/nano"><defs><style>@font-face{font-display:block;src:url(https://design.penpot.app/internal/gfonts/font/cormorantgaramond/v16/co3YmX5slCNuHLi8bLeY9MK7whWMhyjQdl9fsw-I1hc.woff2) format('woff2');unicode-range:U+0460-052F, U+1C80-1C88, U+20B4, U+2DE0-2DFF, U+A640-A69F, U+FE2E-FE2F} @font-face{font-display:block;src:url(https://design.penpot.app/internal/gfonts/font/cormorantgaramond/v16/co3YmX5slCNuHLi8bLeY9MK7whWMhyjQdl9fug-I1hc.woff2) format('woff2');unicode-range:U+0301, U+0400-045F, U+0490-0491, U+04B0-04B1, U+2116} @font-face{font-display:block;src:url(https://design.penpot.app/internal/gfonts/font/cormorantgaramond/v16/co3YmX5slCNuHLi8bLeY9MK7whWMhyjQdl9fsQ-I1hc.woff2) format('woff2');unicode-range:U+0102-0103, U+0110-0111, U+0128-0129, U+0168-0169, U+01A0-01A1, U+01AF-01B0, U+0300-0301, U+0303-0304, U+0308-0309, U+0323, U+0329, U+1EA0-1EF9, U+20AB} @font-face{font-display:block;src:url(https://design.penpot.app/internal/gfonts/font/cormorantgaramond/v16/co3YmX5slCNuHLi8bLeY9MK7whWMhyjQdl9fsA-I1hc.woff2) format('woff2');unicode-range:U+0100-02AF, U+0304, U+0308, U+0329, U+1E00-1E9F, U+1EF2-1EFF, U+2020, U+20A0-20AB, U+20AD-20C0, U+2113, U+2C60-2C7F, U+A720-A7FF} @font-face{font-display:block;src:url(https://design.penpot.app/internal/gfonts/font/cormorantgaramond/v16/co3YmX5slCNuHLi8bLeY9MK7whWMhyjQdl9fvg-I.woff2) format('woff2');unicode-range:U+0000-00FF, U+0131, U+0152-0153, U+02BB-02BC, U+02C6, U+02DA, U+02DC, U+0304, U+0308, U+0329, U+2000-206F, U+2074, U+20AC, U+2122, U+2191, U+2193, U+2212, U+2215, U+FEFF, U+FFFD} @font-face{font-display:block;src:url(https://design.penpot.app/internal/gfonts/font/worksans/v19/QGY_z_wNahGAdqQ43RhVcIgYT2Xz5u32K67QBiAJpp_c.woff2) format('woff2');unicode-range:U+0102-0103, U+0110-0111, U+0128-0129, U+0168-0169, U+01A0-01A1, U+01AF-01B0, U+0300-0301, U+0303-0304, U+0308-0309, U+0323, U+0329, U+1EA0-1EF9, U+20AB} @font-face{font-display:block;src:url(https://design.penpot.app/internal/gfonts/font/worksans/v19/QGY_z_wNahGAdqQ43RhVcIgYT2Xz5u32K67QBiEJpp_c.woff2) format('woff2');unicode-range:U+0100-02AF, U+0304, U+0308, U+0329, U+1E00-1E9F, U+1EF2-1EFF, U+2020, U+20A0-20AB, U+20AD-20C0, U+2113, U+2C60-2C7F, U+A720-A7FF} @font-face{font-display:block;src:url(https://design.penpot.app/internal/gfonts/font/worksans/v19/QGY_z_wNahGAdqQ43RhVcIgYT2Xz5u32K67QBi8Jpg.woff2) format('woff2');unicode-range:U+0000-00FF, U+0131, U+0152-0153, U+02BB-02BC, U+02C6, U+02DA, U+02DC, U+0304, U+0308, U+0329, U+2000-206F, U+2074, U+20AC, U+2122, U+2191, U+2193, U+2212, U+2215, U+FEFF, U+FFFD}</style></defs><path d="M126.477 12.914v26.4h-6.079v-12.12l.2-8.12h-.08l-6.519 20.24h-5.559l-6.519-20.24h-.08l.2 8.12v12.12H95.92v-26.4h9.799l4.16 13.44 1.48 5.6h.08l1.52-5.56 4.12-13.48zm12.719 0v26.4h-6.879v-26.4zm29.637 0v26.4h-7.639l-8.199-14.28-2-3.92h-.04l.16 4.88v13.32h-6.079v-26.4h7.639l8.199 14.28 2 3.92h.04l-.16-4.88v-13.32zm17.038 0q6.199 0 9.479 3.44 3.32 3.44 3.32 9.76 0 6.32-3.32 9.76-3.28 3.44-9.479 3.44h-11.199v-26.4zm-.68 21.2q3.36 0 4.88-2 1.56-2.04 1.56-6 0-3.96-1.56-5.96-1.52-2.04-4.88-2.04h-3.64v16zm60.194-21.2v26.4h-6.079v-12.12l.2-8.12h-.08l-6.519 20.24h-5.559l-6.519-20.24h-.08l.2 8.12v12.12h-6.119v-26.4h9.799l4.16 13.44 1.48 5.6h.08l1.52-5.56 4.12-13.48zm28.917 0v15.64q0 5.6-3 8.4-2.96 2.76-8.799 2.76-5.799 0-8.799-2.76-3-2.8-3-8.4v-15.64h6.919v15.76q0 2.84 1.2 4.24 1.24 1.4 3.68 1.4 2.48 0 3.68-1.4 1.24-1.4 1.24-4.24v-15.76zm15.638-.4q3.68 0 6.479 1.16 2.84 1.12 4.92 3.32l-3.32 4.44q-1.72-1.8-3.72-2.68-1.96-.92-4.48-.92-1.48 0-2.4.32-.92.32-1.32.88-.4.56-.4 1.28 0 .84.76 1.44.8.56 2.56.96l4.44 1q3.96.92 5.799 2.68 1.84 1.76 1.84 4.68 0 2.8-1.44 4.76-1.44 1.92-3.96 2.92-2.52.96-5.759.96-2.64 0-5.04-.56-2.4-.6-4.32-1.68-1.92-1.08-3.24-2.48l3.32-4.6q1 1.16 2.44 2.08 1.48.88 3.2 1.4 1.76.52 3.56.52 1.4 0 2.32-.28.96-.28 1.4-.84.44-.56.44-1.32 0-.84-.6-1.4-.6-.6-2.28-1l-4.88-1.08q-2.24-.52-4-1.36-1.72-.88-2.72-2.32-1-1.48-1-3.68 0-2.48 1.36-4.4 1.36-1.96 3.92-3.08 2.56-1.12 6.119-1.12zm38.876 19.24q-.76 2.76-2.44 4.56-1.68 1.76-4 2.6-2.32.8-5.12.8-4 0-6.919-1.6-2.92-1.64-4.48-4.68-1.56-3.04-1.56-7.32 0-4.28 1.56-7.32 1.56-3.04 4.48-4.64 2.92-1.64 6.879-1.64 2.76 0 5.08.8 2.32.76 3.92 2.36 1.6 1.6 2.28 4.12l-6.039 2.44q-.56-2.48-1.84-3.4-1.24-.92-3.16-.92-1.88 0-3.28.92-1.36.92-2.12 2.76-.72 1.8-.72 4.52 0 2.68.68 4.52.68 1.84 2.04 2.76 1.4.92 3.44.92 1.92 0 3.24-1.04 1.36-1.08 1.84-3.28zm10.719 2.24h13.239v5.32h-20.118v-26.4h6.879zm17.198 5.32v-26.4h20.558v5.32h-13.679v5.36h10.879v5h-10.879v5.4h14.199v5.32zm35.557-26.8q3.68 0 6.479 1.16 2.84 1.12 4.92 3.32l-3.32 4.44q-1.72-1.8-3.72-2.68-1.96-.92-4.48-.92-1.48 0-2.4.32-.92.32-1.32.88-.4.56-.4 1.28 0 .84.76 1.44.8.56 2.56.96l4.44 1q3.96.92 5.799 2.68 1.84 1.76 1.84 4.68 0 2.8-1.44 4.76-1.44 1.92-3.96 2.92-2.52.96-5.759.96-2.64 0-5.04-.56-2.4-.6-4.32-1.68-1.92-1.08-3.24-2.48l3.32-4.6q1 1.16 2.44 2.08 1.48.88 3.2 1.4 1.76.52 3.56.52 1.4 0 2.32-.28.96-.28 1.4-.84.44-.56.44-1.32 0-.84-.6-1.4-.6-.6-2.28-1l-4.88-1.08q-2.24-.52-4-1.36-1.72-.88-2.72-2.32-1-1.48-1-3.68 0-2.48 1.36-4.4 1.36-1.96 3.92-3.08 2.56-1.12 6.119-1.12z" fill="#02c37e"/><path d="M103.56 73.716h15.399l.385 1.375h-16.499zm28.544 14.19q.22 0 .22.33 0 .33-.22.33-1.045 0-3.355-.11-2.31-.11-3.355-.11-1.375 0-3.245.11-1.87.11-2.915.11-.22 0-.22-.33 0-.33.22-.33 1.65 0 2.365-.33.715-.385.715-1.21 0-.825-.935-2.805l-11.494-23.375 2.255-3.685-10.889 24.53q-.715 1.65-.715 2.97 0 1.925 1.375 2.915 1.375.99 3.85.99.275 0 .275.33 0 .33-.275.33-.99 0-2.86-.11-2.09-.11-3.63-.11-1.485 0-3.465.11-1.76.11-2.915.11-.275 0-.275-.33 0-.33.275-.33 1.54 0 2.585-.605 1.045-.605 2.035-2.145.99-1.595 2.365-4.675l11.824-26.62q.11-.165.495-.165.385 0 .44.165l13.474 27.17q1.87 3.96 3.135 5.445 1.32 1.43 2.86 1.43zm12.814 1.32q-3.575 0-6.105-1.54-2.475-1.595-3.685-4.07-1.21-2.53-1.21-5.28 0-3.465 1.87-6.05 1.87-2.64 4.785-4.015 2.97-1.43 5.995-1.43 2.585 0 4.62 1.045 2.09 1.045 2.09 2.805 0 .935-.715 1.595-.66.66-1.925.66-2.145 0-3.025-2.42-.495-1.375-1.155-1.925-.605-.605-1.925-.605-2.585 0-4.125 2.365-1.485 2.31-1.485 6.215 0 4.565 2.09 7.425 2.145 2.805 6.655 2.805 1.485 0 2.695-.385 1.265-.385 2.695-1.21h.055q.165 0 .275.165.165.165.055.275-2.035 1.815-4.015 2.695-1.98.88-4.51.88zm27.554-.33q-.22.11-.495.11-.99 0-1.815-1.32-.825-1.375-.825-3.63v-9.68q0-3.41-.715-4.95-.66-1.595-2.145-1.595-1.815 0-2.64 1.375-.77 1.32-.935 2.97-.33 2.805-2.805 2.805-1.21 0-1.815-.55-.55-.55-.55-1.375 0-1.54 1.815-2.97 1.87-1.485 4.455-2.365 2.64-.935 4.62-.935 2.365 0 3.74 1.485 1.43 1.485 1.43 4.455v9.9q0 3.465 2.145 3.465.825 0 1.98-.495h.11q.22 0 .275.275.055.22-.165.33zm-10.34.055q-2.255 0-3.41-1.045-1.155-1.045-1.155-2.86 0-1.485.77-2.42.825-.935 2.035-1.485 1.21-.605 3.63-1.485l5.885-2.2.165.825-4.015 1.705q-1.485.605-2.365 1.32-.88.715-.88 2.145 0 1.32.825 2.09.88.77 2.035.77 1.045 0 2.145-.66l2.97-1.98.055.825-3.905 2.75q-1.32.935-2.42 1.32-1.045.385-2.365.385zm26.454.33q-2.365 0-4.345-1.265-1.98-1.32-3.135-3.74-1.155-2.42-1.155-5.665 0-4.07 1.925-6.765 1.925-2.695 4.84-3.96 2.915-1.265 5.83-1.265 3.575 0 6.765 1.98l-1.045 4.18q-1.32-2.475-2.915-3.63-1.54-1.21-3.85-1.21-3.135 0-4.895 2.2-1.705 2.2-1.705 6.765 0 4.62 1.815 7.315 1.815 2.64 4.62 2.64 2.09 0 3.74-1.1 1.705-1.1 3.63-3.19l.495.44q-2.53 2.805-5.005 4.565-2.42 1.705-5.61 1.705zm13.034-6.985q0 1.925.385 2.75.385.77 1.32.77 1.1 0 2.475-.66h.055q.165 0 .275.275.165.275 0 .33l-7.04 3.41-.33.055q-.66 0-1.155-1.375-.44-1.375-.44-3.795v-28.05q0-1.925-.385-2.75-.33-.88-1.265-.88-.605 0-2.2.66h-.11q-.22 0-.33-.275-.11-.275.055-.33l7.7-3.685.22-.055q.22 0 .495.22.275.22.275.385zm17.269 6.93q-3.355 0-5.83-1.485-2.42-1.485-3.74-3.905-1.265-2.42-1.265-5.225 0-3.245 1.595-5.94 1.595-2.695 4.345-4.235 2.805-1.595 6.215-1.595 3.3 0 5.06 1.595 1.815 1.595 1.815 4.73 0 .825-.165 1.21-.11.385-.44.385h-4.51q.275-6.82-3.74-6.82-2.475 0-3.905 2.255-1.375 2.255-1.375 6.105 0 4.84 2.255 7.7 2.255 2.805 6.38 2.805 1.54 0 2.585-.385 1.045-.385 2.75-1.265l.11-.055q.11 0 .22.22.165.22.055.33-1.98 1.87-4.015 2.75-2.035.825-4.4.825zm-7.59-15.345l12.209-.22v1.1l-12.154.055zm48.453 14.685q-.165 0-.165-.33 0-.33.165-.33 1.815 0 2.475-.77.66-.825.66-3.025v-8.195q0-3.08-1.1-4.565-1.045-1.485-3.245-1.485-1.76 0-3.52.99-1.705.99-2.86 2.695l-.275-.66q4.235-6.16 9.35-6.16 2.915 0 4.455 1.705 1.595 1.65 1.595 5.06v10.615q0 2.255.605 3.025.66.77 2.53.77.22 0 .22.33 0 .33-.22.33-1.375 0-2.2-.055l-3.135-.055-3.135.055q-.825.055-2.2.055zm-14.354 0q-.165 0-.165-.33 0-.33.165-.33 1.87 0 2.475-.77.66-.77.66-3.025v-8.195q0-3.08-1.1-4.565-1.045-1.485-3.245-1.485-1.76 0-3.52.99-1.705.99-2.86 2.695l-.275-.66q4.235-6.16 9.35-6.16 2.915 0 4.455 1.65 1.595 1.595 1.595 4.675v11.055q0 2.255.66 3.025.66.77 2.53.77.165 0 .165.33 0 .33-.165.33-1.43 0-2.255-.055l-3.135-.055-3.135.055q-.825.055-2.2.055zm-14.134 0q-.165 0-.165-.33 0-.33.165-.33 1.87 0 2.475-.77.605-.77.605-3.025V73.606q0-1.76-.44-2.585-.385-.825-1.32-.825-.825 0-2.75.825h-.055q-.22 0-.33-.275-.11-.275.055-.33l7.205-3.52q.33-.11.385-.11.605 0 1.155 1.375.55 1.375.55 3.575v12.375q0 2.255.605 3.025.66.77 2.53.77.165 0 .165.33 0 .33-.165.33-1.375 0-2.2-.055l-3.135-.055-3.19.055q-.77.055-2.145.055zm64.292-21.23q.11 0 .11.33 0 .33-.11.33-1.65 0-2.86 1.32-1.155 1.32-2.145 4.015l-6.325 16.775q-1.98 5.28-3.795 8.305-1.815 3.025-3.685 4.29-1.87 1.32-4.125 1.32-1.54 0-2.365-.66-.88-.605-.88-1.87 0-1.045.715-1.65.66-.605 1.65-.605.66 0 1.045.165.44.165 1.045.55.935.715 1.925.715 1.375 0 2.475-1.21 1.155-1.155 2.42-3.85 1.32-2.695 3.19-7.755l-.165 2.53-9.075-18.48q-1.265-2.42-1.925-3.135-.66-.77-1.705-.77-.11 0-.11-.33 0-.33.11-.33 1.43 0 2.2.055l2.145.055 3.74-.055q.825-.055 2.255-.055.165 0 .165.33 0 .33-.165.33-1.485 0-2.2.275-.715.22-.715.825 0 .44.33 1.045l7.15 14.685-1.705 2.915 5.005-14.41q.44-1.43.44-2.365 0-2.97-3.685-2.97-.11 0-.11-.33 0-.33.11-.33 1.485 0 2.255.055l3.3.055 2.145-.055q.605-.055 1.925-.055zm2.64 21.835q-1.375 0-2.2-.825-.825-.825-.825-2.2 0-1.32.825-2.09.825-.77 2.2-.77 1.43 0 2.2.77.77.77.77 2.09 0 1.43-.77 2.255-.77.77-2.2.77z" fill="#000"/><g transform="matrix(.862438 0 0 .862438 13.52432 8.111142)"><defs><pattern patternUnits="userSpaceOnUse" width="93" height="91" id="A"><image href="https://design.penpot.app/assets/by-file-media-id/00226e16-5f9a-80fa-8004-a7915a4644b5" preserveAspectRatio="xMidYMid slice" width="93" height="91" opacity="1"/></pattern></defs><path d="M0 0h93v91H0z" fill="url(#A)"/></g></svg>