<svg width="2037" height="512" viewBox="0 0 2037 512" fill="none" xmlns="http://www.w3.org/2000/svg">
<path d="M627.936 367.763H701.013L702.84 374.288H624.543L627.936 367.763ZM763.394 435.105C764.09 435.105 764.438 435.627 764.438 436.671C764.438 437.715 764.09 438.237 763.394 438.237C760.088 438.237 754.781 438.063 747.473 437.715C740.164 437.367 734.857 437.193 731.551 437.193C727.201 437.193 722.068 437.367 716.152 437.715C710.236 438.063 705.624 438.237 702.318 438.237C701.622 438.237 701.274 437.715 701.274 436.671C701.274 435.627 701.622 435.105 702.318 435.105C707.538 435.105 711.28 434.583 713.542 433.539C715.804 432.321 716.935 430.407 716.935 427.797C716.935 425.186 715.456 420.749 712.498 414.485L657.952 303.553L668.653 286.064L616.978 402.478C614.716 407.698 613.585 412.397 613.585 416.573C613.585 422.663 615.76 427.275 620.11 430.407C624.46 433.539 630.551 435.105 638.381 435.105C639.251 435.105 639.686 435.627 639.686 436.671C639.686 437.715 639.251 438.237 638.381 438.237C635.249 438.237 630.725 438.063 624.808 437.715C618.196 437.367 612.454 437.193 607.582 437.193C602.884 437.193 597.403 437.367 591.138 437.715C585.57 438.063 580.959 438.237 577.305 438.237C576.435 438.237 576 437.715 576 436.671C576 435.627 576.435 435.105 577.305 435.105C582.177 435.105 586.266 434.148 589.572 432.234C592.879 430.32 596.098 426.927 599.23 422.054C602.362 417.008 606.103 409.612 610.453 399.868L666.565 273.536C666.913 273.014 667.696 272.753 668.914 272.753C670.132 272.753 670.828 273.014 671.002 273.536L734.944 402.478C740.86 415.007 745.82 423.62 749.822 428.319C753.998 432.843 758.522 435.105 763.394 435.105ZM824.204 441.369C812.894 441.369 803.237 438.933 795.232 434.061C787.402 429.015 781.573 422.576 777.745 414.746C773.917 406.741 772.003 398.389 772.003 389.688C772.003 378.725 774.961 369.155 780.877 360.976C786.793 352.624 794.362 346.272 803.585 341.922C812.981 337.398 822.464 335.136 832.034 335.136C840.213 335.136 847.521 336.789 853.959 340.095C860.571 343.401 863.877 347.838 863.877 353.407C863.877 356.365 862.746 358.888 860.484 360.976C858.396 363.064 855.351 364.108 851.349 364.108C844.563 364.108 839.778 360.28 836.994 352.624C835.428 348.273 833.6 345.228 831.512 343.488C829.598 341.574 826.553 340.617 822.377 340.617C814.199 340.617 807.674 344.358 802.802 351.841C798.103 359.149 795.754 368.981 795.754 381.336C795.754 395.779 799.06 407.524 805.673 416.573C812.459 425.447 822.986 429.885 837.255 429.885C841.953 429.885 846.216 429.276 850.044 428.058C854.046 426.84 858.309 424.925 862.833 422.315H863.094C863.616 422.315 864.051 422.576 864.399 423.098C864.921 423.62 865.008 424.055 864.66 424.403C858.222 430.146 851.871 434.409 845.607 437.193C839.343 439.977 832.208 441.369 824.204 441.369ZM954.964 439.803C954.268 440.151 953.485 440.325 952.615 440.325C949.483 440.325 946.612 438.237 944.002 434.061C941.392 429.711 940.087 423.968 940.087 416.834V370.895C940.087 360.106 938.956 352.276 936.694 347.403C934.606 342.357 931.213 339.834 926.515 339.834C920.772 339.834 916.596 342.009 913.986 346.359C911.55 350.536 910.071 355.234 909.549 360.454C908.505 369.329 904.068 373.766 896.238 373.766C892.41 373.766 889.538 372.896 887.624 371.156C885.884 369.416 885.014 367.241 885.014 364.631C885.014 359.758 887.885 355.06 893.628 350.536C899.544 345.837 906.591 342.096 914.769 339.312C923.121 336.354 930.43 334.875 936.694 334.875C944.176 334.875 950.092 337.224 954.442 341.922C958.967 346.62 961.229 353.668 961.229 363.064V410.047C961.229 421.01 964.622 426.492 971.408 426.492C974.018 426.492 977.15 425.708 980.804 424.142H981.326C982.022 424.142 982.457 424.577 982.631 425.447C982.805 426.144 982.544 426.666 981.848 427.014L954.964 439.803ZM905.895 440.064C898.761 440.064 893.367 438.411 889.712 435.105C886.058 431.799 884.231 427.275 884.231 421.532C884.231 416.834 885.449 413.006 887.885 410.047C890.495 407.089 893.715 404.74 897.543 403C901.371 401.086 907.113 398.737 914.769 395.953L942.697 385.512L943.48 389.427L924.426 397.519C919.728 399.433 915.987 401.521 913.203 403.783C910.419 406.045 909.027 409.438 909.027 413.963C909.027 418.139 910.332 421.445 912.942 423.881C915.726 426.318 918.945 427.536 922.599 427.536C925.905 427.536 929.299 426.492 932.779 424.403L946.873 415.007L947.134 418.922L928.603 431.973C924.427 434.931 920.598 437.019 917.118 438.237C913.812 439.455 910.071 440.064 905.895 440.064ZM1031.43 441.63C1023.95 441.63 1017.08 439.629 1010.82 435.627C1004.55 431.451 999.592 425.534 995.938 417.878C992.284 410.221 990.457 401.26 990.457 390.993C990.457 378.116 993.502 367.415 999.592 358.888C1005.68 350.362 1013.34 344.097 1022.56 340.095C1031.78 336.093 1041.01 334.092 1050.23 334.092C1061.54 334.092 1072.24 337.224 1082.33 343.488L1077.37 363.325C1073.2 355.495 1068.59 349.753 1063.54 346.098C1058.67 342.27 1052.58 340.356 1045.27 340.356C1035.35 340.356 1027.61 343.836 1022.04 350.797C1016.64 357.757 1013.95 368.459 1013.95 382.902C1013.95 397.519 1016.82 409.09 1022.56 417.617C1028.3 425.969 1035.61 430.146 1044.49 430.146C1051.1 430.146 1057.01 428.406 1062.23 424.925C1067.63 421.445 1073.37 416.399 1079.46 409.786L1081.81 411.875C1073.81 420.749 1065.89 427.971 1058.06 433.539C1050.4 438.933 1041.53 441.63 1031.43 441.63ZM1093.29 408.481C1093.29 414.572 1093.9 418.922 1095.12 421.532C1096.33 423.968 1098.42 425.186 1101.38 425.186C1104.86 425.186 1108.78 424.142 1113.13 422.054H1113.39C1113.91 422.054 1114.34 422.489 1114.69 423.359C1115.21 424.229 1115.21 424.751 1114.69 424.925L1081.28 441.108L1079.72 441.369C1077.63 441.369 1075.8 439.194 1074.24 434.844C1072.84 430.494 1072.15 424.49 1072.15 416.834V283.715C1072.15 277.625 1071.54 273.275 1070.32 270.664C1069.28 267.88 1067.28 266.488 1064.32 266.488C1062.4 266.488 1058.92 267.532 1053.88 269.62H1053.35C1052.66 269.62 1052.14 269.185 1051.79 268.315C1051.44 267.445 1051.53 266.923 1052.05 266.749L1088.59 249.261L1089.63 249C1090.33 249 1091.11 249.348 1091.98 250.044C1092.85 250.74 1093.29 251.349 1093.29 251.871V408.481ZM1175.24 441.369C1164.63 441.369 1155.4 439.02 1147.57 434.322C1139.92 429.624 1134 423.446 1129.83 415.79C1125.82 408.133 1123.82 399.868 1123.82 390.993C1123.82 380.727 1126.35 371.33 1131.39 362.803C1136.44 354.277 1143.31 347.577 1152.01 342.705C1160.89 337.659 1170.72 335.136 1181.5 335.136C1191.95 335.136 1199.95 337.659 1205.52 342.705C1211.26 347.751 1214.13 355.234 1214.13 365.153C1214.13 367.763 1213.87 369.677 1213.35 370.895C1213 372.113 1212.3 372.722 1211.26 372.722H1189.86C1190.73 351.145 1184.81 340.356 1172.11 340.356C1164.28 340.356 1158.1 343.923 1153.58 351.058C1149.23 358.192 1147.05 367.85 1147.05 380.031C1147.05 395.344 1150.62 407.524 1157.75 416.573C1164.89 425.447 1174.98 429.885 1188.03 429.885C1192.9 429.885 1196.99 429.276 1200.3 428.058C1203.6 426.84 1207.95 424.838 1213.35 422.054L1213.87 421.793C1214.22 421.793 1214.57 422.141 1214.91 422.837C1215.44 423.533 1215.52 424.055 1215.17 424.403C1208.91 430.32 1202.56 434.67 1196.12 437.454C1189.68 440.064 1182.72 441.369 1175.24 441.369ZM1139.22 368.546L1197.16 367.502V372.722L1139.48 372.983L1139.22 368.546ZM1369.16 438.237C1368.64 438.237 1368.38 437.715 1368.38 436.671C1368.38 435.627 1368.64 435.105 1369.16 435.105C1374.9 435.105 1378.82 433.887 1380.91 431.451C1382.99 428.841 1384.04 424.055 1384.04 417.095V378.203C1384.04 368.459 1382.3 361.237 1378.82 356.539C1375.51 351.841 1370.38 349.492 1363.42 349.492C1357.85 349.492 1352.28 351.058 1346.71 354.19C1341.32 357.322 1336.8 361.585 1333.14 366.98L1331.84 363.847C1345.23 344.358 1360.02 334.614 1376.21 334.614C1385.43 334.614 1392.48 337.311 1397.35 342.705C1402.4 347.925 1404.92 355.93 1404.92 366.719V417.095C1404.92 424.229 1405.88 429.015 1407.79 431.451C1409.88 433.887 1413.88 435.105 1419.8 435.105C1420.49 435.105 1420.84 435.627 1420.84 436.671C1420.84 437.715 1420.49 438.237 1419.8 438.237C1415.45 438.237 1411.97 438.15 1409.36 437.976L1394.48 437.715L1379.6 437.976C1376.99 438.15 1373.51 438.237 1369.16 438.237ZM1301.04 438.237C1300.52 438.237 1300.26 437.715 1300.26 436.671C1300.26 435.627 1300.52 435.105 1301.04 435.105C1306.96 435.105 1310.87 433.887 1312.79 431.451C1314.88 429.015 1315.92 424.229 1315.92 417.095V378.203C1315.92 368.459 1314.18 361.237 1310.7 356.539C1307.39 351.841 1302.26 349.492 1295.3 349.492C1289.73 349.492 1284.16 351.058 1278.6 354.19C1273.2 357.322 1268.68 361.585 1265.02 366.98L1263.72 363.847C1277.12 344.358 1291.91 334.614 1308.09 334.614C1317.31 334.614 1324.36 337.224 1329.23 342.444C1334.28 347.49 1336.8 354.886 1336.8 364.631V417.095C1336.8 424.229 1337.84 429.015 1339.93 431.451C1342.02 433.887 1346.02 435.105 1351.94 435.105C1352.46 435.105 1352.72 435.627 1352.72 436.671C1352.72 437.715 1352.46 438.237 1351.94 438.237C1347.41 438.237 1343.85 438.15 1341.24 437.976L1326.36 437.715L1311.48 437.976C1308.87 438.15 1305.39 438.237 1301.04 438.237ZM1233.97 438.237C1233.45 438.237 1233.18 437.715 1233.18 436.671C1233.18 435.627 1233.45 435.105 1233.97 435.105C1239.88 435.105 1243.8 433.887 1245.71 431.451C1247.63 429.015 1248.58 424.229 1248.58 417.095V367.241C1248.58 361.672 1247.89 357.583 1246.5 354.973C1245.28 352.363 1243.19 351.058 1240.23 351.058C1237.62 351.058 1233.27 352.363 1227.18 354.973H1226.92C1226.22 354.973 1225.7 354.538 1225.35 353.668C1225.01 352.798 1225.09 352.276 1225.62 352.102L1259.81 335.397C1260.85 335.049 1261.46 334.875 1261.63 334.875C1263.55 334.875 1265.38 337.05 1267.12 341.4C1268.86 345.75 1269.73 351.406 1269.73 358.366V417.095C1269.73 424.229 1270.68 429.015 1272.6 431.451C1274.68 433.887 1278.69 435.105 1284.6 435.105C1285.13 435.105 1285.39 435.627 1285.39 436.671C1285.39 437.715 1285.13 438.237 1284.6 438.237C1280.25 438.237 1276.77 438.15 1274.16 437.976L1259.29 437.715L1244.15 437.976C1241.71 438.15 1238.32 438.237 1233.97 438.237ZM1539.07 337.485C1539.42 337.485 1539.59 338.007 1539.59 339.051C1539.59 340.095 1539.42 340.617 1539.07 340.617C1533.85 340.617 1529.33 342.705 1525.5 346.881C1521.84 351.058 1518.45 357.409 1515.32 365.936L1485.3 445.546C1479.04 462.251 1473.04 475.389 1467.29 484.959C1461.55 494.53 1455.72 501.316 1449.81 505.319C1443.89 509.495 1437.37 511.583 1430.23 511.583C1425.36 511.583 1421.62 510.539 1419.01 508.451C1416.22 506.537 1414.83 503.579 1414.83 499.576C1414.83 496.27 1415.96 493.66 1418.22 491.746C1420.31 489.832 1422.92 488.875 1426.06 488.875C1428.14 488.875 1429.8 489.136 1431.01 489.658C1432.41 490.18 1434.06 491.05 1435.97 492.268C1438.93 494.53 1441.98 495.661 1445.11 495.661C1449.46 495.661 1453.37 493.747 1456.85 489.919C1460.51 486.264 1464.34 480.174 1468.34 471.647C1472.51 463.121 1477.56 450.853 1483.48 434.844L1482.69 446.851L1439.63 359.149C1435.63 351.493 1432.58 346.533 1430.49 344.271C1428.4 341.835 1425.71 340.617 1422.4 340.617C1422.05 340.617 1421.88 340.095 1421.88 339.051C1421.88 338.007 1422.05 337.485 1422.4 337.485C1426.93 337.485 1430.41 337.572 1432.84 337.746L1443.02 338.007L1460.77 337.746C1463.38 337.572 1466.95 337.485 1471.47 337.485C1471.99 337.485 1472.25 338.007 1472.25 339.051C1472.25 340.095 1471.99 340.617 1471.47 340.617C1466.77 340.617 1463.29 341.052 1461.03 341.922C1458.77 342.618 1457.64 343.923 1457.64 345.837C1457.64 347.229 1458.16 348.882 1459.2 350.797L1493.13 420.488L1485.04 434.322L1508.79 365.936C1510.19 361.411 1510.88 357.67 1510.88 354.712C1510.88 345.315 1505.05 340.617 1493.4 340.617C1493.05 340.617 1492.87 340.095 1492.87 339.051C1492.87 338.007 1493.05 337.485 1493.4 337.485C1498.09 337.485 1501.66 337.572 1504.1 337.746L1519.76 338.007L1529.94 337.746C1531.85 337.572 1534.9 337.485 1539.07 337.485ZM1551.6 441.108C1547.25 441.108 1543.77 439.803 1541.16 437.193C1538.55 434.583 1537.24 431.103 1537.24 426.753C1537.24 422.576 1538.55 419.27 1541.16 416.834C1543.77 414.398 1547.25 413.18 1551.6 413.18C1556.12 413.18 1559.6 414.398 1562.04 416.834C1564.48 419.27 1565.69 422.576 1565.69 426.753C1565.69 431.277 1564.48 434.844 1562.04 437.454C1559.6 439.89 1556.12 441.108 1551.6 441.108Z" fill="black"/>
<path d="M721.011 61.8983V187.186H692.163V129.668L693.112 91.1322H692.732L661.796 187.186H635.415L604.478 91.1322H604.099L605.048 129.668V187.186H576V61.8983H622.502L642.244 125.681L649.267 152.258H649.647L656.86 125.871L676.412 61.8983H721.011ZM781.37 61.8983V187.186H748.726V61.8983H781.37ZM922.016 61.8983V187.186H885.764L846.855 119.417L837.364 100.814H837.174L837.933 123.973V187.186H809.085V61.8983H845.336L884.245 129.668L893.737 148.271H893.927L893.167 125.112V61.8983H922.016ZM1002.87 61.8983C1022.48 61.8983 1037.48 67.3401 1047.85 78.2237C1058.36 89.1073 1063.61 104.547 1063.61 124.542C1063.61 144.538 1058.36 159.977 1047.85 170.861C1037.48 181.745 1022.48 187.186 1002.87 187.186H949.725V61.8983H1002.87ZM999.644 162.508C1010.27 162.508 1017.99 159.345 1022.8 153.017C1027.74 146.563 1030.21 137.071 1030.21 124.542C1030.21 112.014 1027.74 102.585 1022.8 96.2576C1017.99 89.8034 1010.27 86.5763 999.644 86.5763H982.37V162.508H999.644ZM1285.3 61.8983V187.186H1256.45V129.668L1257.4 91.1322H1257.02L1226.09 187.186H1199.7L1168.77 91.1322H1168.39L1169.34 129.668V187.186H1140.3V61.8983H1186.8L1206.54 125.681L1213.57 152.258H1213.95L1221.16 125.871L1240.71 61.8983H1285.3ZM1422.53 61.8983V136.122C1422.53 153.84 1417.78 167.128 1408.29 175.986C1398.93 184.719 1385.01 189.085 1366.54 189.085C1348.19 189.085 1334.27 184.719 1324.78 175.986C1315.29 167.128 1310.54 153.84 1310.54 136.122V61.8983H1343.38V136.692C1343.38 145.677 1345.28 152.384 1349.07 156.814C1352.99 161.243 1358.82 163.458 1366.54 163.458C1374.38 163.458 1380.2 161.243 1384 156.814C1387.92 152.384 1389.88 145.677 1389.88 136.692V61.8983H1422.53ZM1496.74 60C1508.38 60 1518.63 61.835 1527.49 65.5051C1536.47 69.0486 1544.26 74.3006 1550.84 81.261L1535.08 102.332C1529.64 96.6373 1523.75 92.3977 1517.43 89.6136C1511.23 86.7028 1504.14 85.2475 1496.17 85.2475C1491.48 85.2475 1487.69 85.7537 1484.78 86.7661C1481.87 87.7785 1479.78 89.1706 1478.51 90.9424C1477.25 92.7141 1476.61 94.739 1476.61 97.0169C1476.61 99.6746 1477.82 101.953 1480.22 103.851C1482.75 105.623 1486.8 107.141 1492.37 108.407L1513.44 113.153C1525.97 116.063 1535.14 120.303 1540.96 125.871C1546.78 131.44 1549.69 138.843 1549.69 148.081C1549.69 156.94 1547.41 164.47 1542.86 170.671C1538.3 176.746 1532.04 181.365 1524.07 184.529C1516.09 187.566 1506.98 189.085 1496.74 189.085C1488.38 189.085 1480.41 188.199 1472.82 186.427C1465.23 184.529 1458.39 181.871 1452.32 178.454C1446.24 175.037 1441.12 171.114 1436.94 166.685L1452.7 144.854C1455.86 148.524 1459.72 151.815 1464.28 154.725C1468.96 157.51 1474.02 159.724 1479.46 161.369C1485.03 163.015 1490.66 163.837 1496.36 163.837C1500.79 163.837 1504.46 163.394 1507.37 162.508C1510.4 161.623 1512.62 160.294 1514.01 158.522C1515.4 156.75 1516.1 154.662 1516.1 152.258C1516.1 149.6 1515.15 147.385 1513.25 145.614C1511.35 143.715 1507.75 142.133 1502.43 140.868L1479.27 135.742C1472.19 134.097 1465.86 131.946 1460.29 129.288C1454.85 126.504 1450.55 122.834 1447.38 118.278C1444.22 113.595 1442.64 107.774 1442.64 100.814C1442.64 92.9672 1444.79 86.0068 1449.09 79.9322C1453.39 73.7311 1459.59 68.8588 1467.69 65.3153C1475.79 61.7718 1485.47 60 1496.73 60H1496.74ZM1681.23 151.308C1678.83 160.041 1674.97 167.254 1669.65 172.949C1664.34 178.518 1658.01 182.631 1650.67 185.288C1643.33 187.819 1635.23 189.085 1626.37 189.085C1613.72 189.085 1602.77 186.554 1593.54 181.492C1584.3 176.303 1577.21 168.899 1572.28 159.281C1567.34 149.663 1564.87 138.084 1564.87 124.542C1564.87 111.001 1567.34 99.4215 1572.28 89.8034C1577.21 80.1853 1584.3 72.8452 1593.54 67.7831C1602.77 62.5944 1613.66 60 1626.18 60C1634.91 60 1642.95 61.2655 1650.29 63.7966C1657.63 66.2011 1663.83 69.9345 1668.89 74.9966C1673.95 80.0588 1677.56 86.5763 1679.71 94.5492L1651.05 106.129C1649.28 98.2825 1646.37 92.904 1642.32 89.9932C1638.4 87.0825 1633.4 85.6271 1627.33 85.6271C1621.38 85.6271 1616.19 87.0825 1611.76 89.9932C1607.46 92.904 1604.1 97.2701 1601.7 103.092C1599.42 108.786 1598.28 115.937 1598.28 124.542C1598.28 133.021 1599.36 140.172 1601.51 145.993C1603.66 151.815 1606.89 156.181 1611.19 159.092C1615.62 162.002 1621.06 163.458 1627.52 163.458C1633.59 163.458 1638.71 161.812 1642.89 158.522C1647.19 155.105 1650.1 149.916 1651.62 142.956L1681.23 151.308ZM1732.1 161.939H1794.93V187.186H1699.45V61.8983H1732.1V161.939ZM1813.71 187.186V61.8983H1911.27V87.1458H1846.36V112.583H1897.99V136.312H1846.36V161.939H1913.74V187.186H1813.71ZM1982.45 60C1994.1 60 2004.34 61.835 2013.2 65.5051C2022.18 69.0486 2029.97 74.3006 2036.55 81.261L2020.79 102.332C2015.35 96.6373 2009.47 92.3977 2003.14 89.6136C1996.94 86.7028 1989.85 85.2475 1981.88 85.2475C1977.2 85.2475 1973.4 85.7537 1970.49 86.7661C1967.58 87.7785 1965.49 89.1706 1964.22 90.9424C1962.96 92.7141 1962.33 94.739 1962.33 97.0169C1962.33 99.6746 1963.53 101.953 1965.93 103.851C1968.46 105.623 1972.51 107.141 1978.08 108.407L1999.15 113.153C2011.68 116.063 2020.85 120.303 2026.67 125.871C2032.49 131.44 2035.4 138.843 2035.4 148.081C2035.4 156.94 2033.13 164.47 2028.57 170.671C2024.01 176.746 2017.75 181.365 2009.78 184.529C2001.81 187.566 1992.7 189.085 1982.45 189.085C1974.1 189.085 1966.12 188.199 1958.53 186.427C1950.94 184.529 1944.1 181.871 1938.03 178.454C1931.95 175.037 1926.83 171.114 1922.65 166.685L1938.41 144.854C1941.57 148.524 1945.43 151.815 1949.99 154.725C1954.67 157.51 1959.73 159.724 1965.17 161.369C1970.74 163.015 1976.37 163.837 1982.07 163.837C1986.5 163.837 1990.17 163.394 1993.08 162.508C1996.12 161.623 1998.33 160.294 1999.72 158.522C2001.11 156.75 2001.81 154.662 2001.81 152.258C2001.81 149.6 2000.86 147.385 1998.96 145.614C1997.06 143.715 1993.46 142.133 1988.14 140.868L1964.98 135.742C1957.9 134.097 1951.57 131.946 1946 129.288C1940.56 126.504 1936.26 122.834 1933.09 118.278C1929.93 113.595 1928.35 107.774 1928.35 100.814C1928.35 92.9672 1930.5 86.0068 1934.8 79.9322C1939.1 73.7311 1945.31 68.8588 1953.4 65.3153C1961.5 61.7718 1971.18 60 1982.44 60H1982.45Z" fill="#19A28D"/>
<g clip-path="url(#clip0_26_26)">
<path d="M550 -50H-50V550H550V-50Z" fill="white"/>
<path d="M550 -50H-50V550H550V-50Z" fill="#19A28D"/>
<mask id="mask0_26_26" style="mask-type:luminance" maskUnits="userSpaceOnUse" x="68" y="116" width="363" height="250">
<path d="M68.8386 116H430.839V365.333H68.8386V116Z" fill="white"/>
</mask>
<g mask="url(#mask0_26_26)">
<path d="M249.995 116.484L68.8386 211.823L249.995 307.167L354.87 254.135C354.87 254.135 354.87 302.203 354.87 326.234C354.87 364.375 393.011 364.375 393.011 364.375V345.302C393.011 345.302 373.943 344.214 373.943 326.229C373.943 297.625 373.943 243.401 373.943 243.401L431.151 211.823L249.995 116.484Z" fill="white"/>
</g>
<mask id="mask1_26_26" style="mask-type:luminance" maskUnits="userSpaceOnUse" x="164" y="288" width="172" height="96">
<path d="M164 288H336V383.938H164V288Z" fill="white"/>
</mask>
<g mask="url(#mask1_26_26)">
<path d="M164.182 288.099V326.234C164.182 335.708 170.38 348.401 183.25 354.839L249.995 383.443L307.198 354.839C320.073 348.401 336.703 335.662 335.802 326.234V288.099L249.995 329.807L164.182 288.099Z" fill="white"/>
</g>
</g>
<defs>
<clipPath id="clip0_26_26">
<rect width="500" height="500" rx="250" fill="white"/>
</clipPath>
</defs>
</svg>
